<svg width="30" height="30" viewBox="0 0 30 30" fill="none" xmlns="http://www.w3.org/2000/svg">
<path d="M1.28662 3.12501H3.6858C4.16428 3.12501 4.40353 3.12501 4.59801 3.21177C4.76945 3.28826 4.9159 3.41147 5.02061 3.5673C5.13937 3.74406 5.18032 3.97977 5.2622 4.4512L5.79175 7.50001M5.79175 7.50001L7.02085 14.5763C7.19986 15.607 7.28937 16.1223 7.55472 16.4935C7.78837 16.8204 8.11504 17.0693 8.49217 17.2078C8.9205 17.3651 9.44109 17.3147 10.4823 17.2138L23.9876 15.9052C25.0088 15.8062 25.5194 15.7567 25.9053 15.526C26.2452 15.3228 26.5171 15.0233 26.6866 14.6654C26.879 14.259 26.879 13.7461 26.879 12.7201V11.2316C26.879 10.1411 26.879 9.59584 26.669 9.1745C26.4842 8.80373 26.1889 8.4995 25.8238 8.30381C25.4088 8.08143 24.8638 8.06528 23.7738 8.03297L5.79175 7.50001Z" stroke="#002F2C" stroke-width="1.5" stroke-linecap="round" stroke-linejoin="round"/>
<ellipse cx="10.6497" cy="23.75" rx="2.49682" ry="2.5" stroke="#002F2C" stroke-width="1.5"/>
<ellipse cx="22.5095" cy="23.75" rx="2.49682" ry="2.5" stroke="#002F2C" stroke-width="1.5"/>
</svg>
